Fly_normalized_Motion_pl12
version=1
nRows=21
nColumns=43
inDegrees=yes
endheader
time		pelvis_tilt		pelvis_list		pelvis_rotation		pelvis_tx		pelvis_ty		pelvis_tz		hip_flexion_r		hip_adduction_r		hip_rotation_r		knee_angle_r		ankle_angle_r		subtalar_angle_r		mtp_angle_r		hip_flexion_l		hip_adduction_l		hip_rotation_l		knee_angle_l		ankle_angle_l		subtalar_angle_l		mtp_angle_l		lumbar_extension		lumbar_bending		lumbar_rotation		neck_flexion		neck_lateral_bending		neck_rotation		arm_flex_r		arm_add_r		arm_rot_r		elbow_flex_r		pro_sup_r		wrist_flex_r		wrist_dev_r		hand_finger_flex_r		arm_flex_l		arm_add_l		arm_rot_l		elbow_flex_l		pro_sup_l		wrist_flex_l		wrist_dev_l		hand_finger_flex_l		
0.708333		1.496174		-15.441772		87.489961		0.025510		1.856091		1.246946		54.471092		2.715093		-0.185982		-57.768738		-12.682132		-8.649318		17.650187		57.726466		-9.649872		-3.237463		-60.880066		-9.017806		-0.871166		26.734568		-38.085077		-0.560852		-1.422017		16.943855		-0.770933		7.137730		74.849240		-15.105294		23.248217		65.628598		112.503578		1.905551		8.707283		12.053205		81.319857		-24.861024		26.901526		66.305624		97.070689		-7.244165		4.653574		22.931175		
0.712677		1.442567		-15.337378		87.503040		0.025223		1.850880		1.239135		54.401259		2.497443		-0.526889		-56.278213		-13.048130		-8.651563		17.592168		57.411811		-9.622257		-3.605332		-59.394661		-9.341046		-0.666423		26.710568		-38.128206		-0.578099		-1.386906		16.778916		-0.848321		7.121811		72.908633		-16.037913		23.573399		65.767398		112.414961		2.225202		8.715335		12.079710		79.433072		-25.611957		27.068400		66.465819		97.215352		-7.181941		4.602307		22.845639		
0.717020		1.380736		-15.219799		87.531106		0.024826		1.845425		1.231172		54.318619		2.262926		-0.857754		-54.863348		-13.469659		-8.629202		17.513154		57.068928		-9.563069		-3.990824		-57.936124		-9.684643		-0.463263		26.684298		-38.168724		-0.573314		-1.350815		16.648599		-0.948136		7.088034		70.914565		-17.024814		23.881098		65.916929		112.263012		2.571640		8.679208		12.139523		77.474545		-26.370096		27.175377		66.678674		97.388683		-7.119857		4.555490		22.769872		
0.721364		1.319465		-15.106406		87.570790		0.024377		1.839749		1.223118		54.218274		2.031541		-1.164320		-53.473987		-13.903345		-8.568352		17.416362		56.705117		-9.490999		-4.383816		-56.483367		-10.021294		-0.268473		26.656736		-38.198202		-0.552825		-1.313380		16.522506		-1.072915		7.043989		68.892930		-18.065627		24.192406		66.064916		112.071178		2.929268		8.618619		12.218283		75.455852		-27.140736		27.259828		66.913079		97.581609		-7.011086		4.532808		22.725993		
0.725707		1.224234		-14.971561		87.595018		0.023847		1.833936		1.214949		54.074941		1.791074		-1.422347		-52.112427		-14.385259		-8.456222		17.262400		56.291703		-9.392322		-4.813111		-55.021178		-10.450379		-0.024728		26.611848		-38.263954		-0.540400		-1.273903		16.523240		-1.278472		6.960766		66.837035		-19.170022		24.469064		66.267691		111.751506		3.351680		8.509378		12.270435		73.303056		-27.825814		27.058762		67.196187		97.952957		-6.806440		4.566176		22.671988		
0.730051		1.125772		-14.817188		87.608937		0.023220		1.827934		1.206674		53.875312		1.570097		-1.626377		-50.763043		-14.810020		-8.309196		17.054464		55.828309		-9.289395		-5.268502		-53.561201		-10.879901		0.211180		26.544280		-38.341641		-0.530376		-1.217685		16.534062		-1.503045		6.865628		64.781073		-20.318461		24.747223		66.416093		111.349670		3.841054		8.421296		12.254152		71.042795		-28.435327		26.635752		67.495678		98.602518		-6.405995		4.683579		22.608630		
0.734394		1.100150		-14.686018		87.650893		0.022707		1.821455		1.198332		53.679237		1.399142		-1.907466		-49.459635		-15.117008		-8.055695		16.942152		55.410142		-9.237718		-5.676115		-52.177017		-11.091369		0.403455		26.519549		-38.328291		-0.465216		-1.157407		16.237609		-1.628904		6.882450		62.686625		-21.456300		25.110385		66.509562		111.209989		4.090046		8.373800		12.311018		68.976085		-29.338790		26.863484		67.702515		98.771201		-6.082479		4.704949		22.710612		
0.738737		1.058043		-14.531965		87.696568		0.022191		1.814846		1.189884		53.441021		1.218534		-2.154034		-48.190929		-15.441838		-7.709967		16.822796		54.942706		-9.175189		-6.112028		-50.781755		-11.397592		0.681999		26.494291		-38.352547		-0.412974		-1.102403		16.047632		-1.793357		6.876880		60.549144		-22.606193		25.394827		66.595226		111.046882		4.302774		8.317989		12.356301		66.831221		-30.209649		26.964893		67.941507		98.914911		-5.817721		4.674827		22.822787		
0.743081		0.769804		-13.953774		87.543894		0.021392		1.808977		1.180835		52.751191		0.866523		-2.178321		-47.059255		-15.275649		-6.461459		16.221475		53.858895		-9.057053		-6.967960		-49.325302		-11.825121		1.304907		26.345723		-38.898567		-0.566255		-1.200504		16.258532		-2.162130		6.877121		58.477042		-23.585476		25.562150		66.708237		110.656222		4.726980		8.509793		11.841765		63.997547		-30.654946		25.210180		68.432175		100.770622		-4.709220		4.562549		23.300970		
0.747424		0.803425		-13.877400		87.648121		0.021006		1.801704		1.172335		52.561912		0.780505		-2.370515		-45.843134		-15.651038		-6.212300		16.104011		53.488832		-9.006606		-7.292533		-47.969668		-12.094086		1.502216		26.324604		-38.781571		-0.442737		-1.136194		15.944325		-2.250661		6.911824		56.281646		-24.690598		25.832653		66.616397		110.577432		4.890206		8.507238		11.852594		61.903290		-31.612699		25.554428		68.570554		100.818433		-4.461453		4.494061		23.419624		
0.751768		0.809228		-13.732852		87.728466		0.020621		1.794310		1.163644		52.305331		0.675829		-2.533231		-44.706452		-16.001620		-5.818399		15.996899		53.035510		-8.976378		-7.699740		-46.654671		-12.542893		1.849475		26.300164		-38.742239		-0.332696		-1.092327		15.673080		-2.388662		6.913564		53.994396		-25.763132		25.946863		66.598403		110.458710		4.998176		8.501022		11.809716		59.643383		-32.540929		25.638858		68.759083		100.787381		-4.288560		4.335487		23.542659		
0.756111		0.589477		-13.277343		87.625508		0.020113		1.787397		1.154452		51.724477		0.435760		-2.486490		-43.688340		-15.898504		-4.612831		15.644930		52.111735		-8.897859		-8.452248		-45.293783		-13.176512		2.629290		26.188187		-39.082779		-0.426731		-1.198370		15.765767		-2.736486		6.963338		51.639204		-26.575469		25.694208		66.655715		110.436454		5.409406		8.771086		10.874402		56.784149		-33.164648		24.276031		69.052121		101.246318		-3.697421		3.801106		24.069156		
0.760455		0.636936		-13.124705		87.724899		0.019741		1.779521		1.145701		51.439249		0.400097		-2.609818		-42.600189		-16.265997		-4.283645		15.553664		51.634674		-8.868146		-8.780623		-43.983743		-13.661499		2.945545		26.161077		-39.023991		-0.288953		-1.118000		15.393688		-2.820320		6.956361		49.284448		-27.674794		25.712058		66.579693		110.267455		5.506808		8.703132		10.774809		54.483922		-34.074004		24.342124		69.187490		101.119753		-3.518351		3.677289		24.200375		
0.764798		0.657005		-12.867054		87.774059		0.019371		1.771679		1.136784		51.038352		0.357027		-2.683139		-41.565705		-16.556755		-3.758030		15.481175		51.018581		-8.858558		-9.151827		-42.689707		-14.385945		3.455262		26.120491		-39.105820		-0.191326		-1.023774		15.235075		-2.939396		6.907721		46.803411		-28.690296		25.426864		66.532844		110.022118		5.506193		8.616214		10.522424		51.962438		-34.811149		23.911560		69.330219		100.830072		-3.392728		3.421894		24.355068		
0.769141		0.655355		-12.462542		87.773160		0.018993		1.763945		1.127668		50.447460		0.315597		-2.699892		-40.535731		-16.697806		-3.034426		15.466549		50.186148		-8.860342		-9.591515		-41.368962		-15.109630		4.009764		26.064754		-39.365902		-0.130509		-0.941192		15.156465		-3.063647		6.864940		44.279498		-29.652890		25.002866		66.529143		109.776873		5.494993		8.597273		10.113039		49.254695		-35.450380		23.068069		69.537062		100.593360		-3.167341		3.112770		24.590905		
0.773485		0.692937		-12.053660		87.784699		0.018602		1.755890		1.118535		49.859668		0.310855		-2.702793		-39.574827		-16.890307		-2.411365		15.481293		49.398472		-8.884086		-9.996009		-40.164295		-15.823630		4.493888		26.016686		-39.603114		-0.035416		-0.844765		14.951692		-3.158444		6.847043		41.744962		-30.625014		24.603856		66.486791		109.532479		5.380794		8.544085		9.814746		46.537242		-36.147026		22.356607		69.793403		100.521660		-3.016839		2.828140		24.752285		
0.777828		0.724503		-11.585727		87.770828		0.018269		1.747894		1.109281		49.120913		0.340404		-2.585096		-38.537139		-16.887452		-1.718915		15.569064		48.465342		-8.914411		-10.427100		-38.855029		-16.517624		5.055601		25.957137		-39.920641		0.050366		-0.791524		14.909460		-3.271413		6.857376		39.210127		-31.483070		24.141707		66.392968		109.305348		5.189496		8.507472		9.455394		43.675338		-36.751482		21.321670		70.023426		100.742933		-2.884898		2.472299		24.877419		
0.782172		0.809020		-11.360007		87.876056		0.017818		1.738781		1.100408		48.712721		0.390710		-2.426078		-37.635897		-16.989609		-1.486095		15.568620		47.945064		-8.867522		-10.586394		-37.773017		-16.834684		5.272756		25.936572		-39.867157		0.218056		-0.726397		14.318053		-3.278535		6.859219		36.815016		-32.603153		24.196369		66.213364		109.182328		5.226008		8.498218		9.432955		41.228617		-37.709550		21.395376		70.253347		100.788401		-2.730736		2.311955		24.959930		
0.786515		0.773885		-10.663747		87.765337		0.017559		1.730627		1.090814		47.744576		0.400099		-2.239477		-36.778544		-16.858246		-0.651029		15.747349		46.778382		-8.943745		-11.214766		-36.675736		-17.567019		6.167713		25.831012		-40.421995		0.216144		-0.801078		14.345695		-3.494518		7.030465		34.227654		-33.185654		23.456031		66.040218		108.883772		4.963535		8.404957		8.909118		37.840018		-38.250227		19.545145		70.712168		101.641762		-2.739354		1.501160		24.821970		
0.790859		0.896748		-10.468501		87.859485		0.017112		1.720987		1.081893		47.335196		0.503446		-2.078657		-35.928642		-16.899291		-0.472564		15.754351		46.297780		-8.950958		-11.373305		-35.672481		-18.025266		6.502115		25.797436		-40.306389		0.413505		-0.736625		13.791857		-3.518089		7.039237		31.684610		-34.079702		23.133916		65.712933		108.607298		4.844320		8.316534		8.811215		35.159512		-39.070905		19.285366		70.879921		101.557225		-2.800943		1.175116		24.750790		
0.795202		0.990723		-10.235013		87.910836		0.016713		1.711167		1.072878		46.891476		0.588240		-1.948545		-35.128039		-16.924522		-0.256239		15.764393		45.761218		-8.956472		-11.538063		-34.703251		-18.461896		6.934029		25.763228		-40.232794		0.571870		-0.685856		13.318818		-3.556611		7.064242		29.063267		-34.903034		22.647811		65.426216		108.297662		4.678903		8.222221		8.698303		32.319380		-39.844929		18.804324		71.073384		101.404945		-3.010512		0.732996		24.599642		
